<svg id="logo-commit" xmlns="http://www.w3.org/2000/svg" width="144.463" height="46.553" viewBox="0 0 144.463 46.553">
  <g id="Group_668" data-name="Group 668" transform="translate(0 2.447)">
    <path id="Path_554" data-name="Path 554" d="M6102.942,2622.3c2.791-1.141,5.4-1.041,6.937.5,2.5,2.5,1.173,7.872-2.958,12l.016-.016-11.13,11.131-7.436-7.435s10.009-10.006,11.114-11.115a15.865,15.865,0,0,0,3.457-5.068" transform="translate(-6067.799 -2601.812)" fill="#844f9e"/>
    <path id="Path_555" data-name="Path 555" d="M5931.708,2518.977c-2.5-2.5-7.871-1.173-12,2.958l.017-.016-15.123,15.122a5.223,5.223,0,0,0,1.15,4.7c2.5,2.5,7.871,1.173,12-2.959,0,0,6.6-6.625,9.387-9.41,3.967-3.968,9.387-5.576,12.013-2.951l-7.439-7.439" transform="translate(-5897.062 -2505.419)" fill="#ff7900"/>
    <path id="Path_556" data-name="Path 556" d="M5801.91,2374.649l7.439,7.439c-2.625-2.626-1.017-8.045,2.951-12.013,2.785-2.785,16.908-16.885,16.908-16.885h-7.455v-7.44l-16.9,16.908.017-.016c-4.132,4.132-5.457,9.507-2.959,12" transform="translate(-5800.644 -2345.749)" fill="#4f0c81"/>
  </g>
  <path id="Path_641" data-name="Path 641" d="M2.107-25.7a7.4,7.4,0,0,1,.811-3.542,5.835,5.835,0,0,1,2.254-2.35,6.477,6.477,0,0,1,3.3-.835,6.45,6.45,0,0,1,3.972,1.169,5.517,5.517,0,0,1,2.063,3.244H12.173a3.357,3.357,0,0,0-1.3-1.884,4.012,4.012,0,0,0-2.4-.692A3.845,3.845,0,0,0,5.47-29.31,5.228,5.228,0,0,0,4.325-25.7a5.313,5.313,0,0,0,1.145,3.65,3.829,3.829,0,0,0,3.006,1.288,4.06,4.06,0,0,0,2.385-.668,3.387,3.387,0,0,0,1.312-1.908h2.338a5.75,5.75,0,0,1-2.1,3.208,6.288,6.288,0,0,1-3.936,1.2,6.477,6.477,0,0,1-3.3-.835,5.817,5.817,0,0,1-2.254-2.362A7.519,7.519,0,0,1,2.107-25.7ZM23.1-18.921a6.693,6.693,0,0,1-3.328-.835,5.944,5.944,0,0,1-2.338-2.373,7.277,7.277,0,0,1-.847-3.566,7.067,7.067,0,0,1,.871-3.542A6,6,0,0,1,19.831-31.6a6.886,6.886,0,0,1,3.363-.823,6.886,6.886,0,0,1,3.363.823,6.021,6.021,0,0,1,2.373,2.35A7.05,7.05,0,0,1,29.8-25.7a6.966,6.966,0,0,1-.895,3.566,6.2,6.2,0,0,1-2.421,2.373A6.942,6.942,0,0,1,23.1-18.921Zm0-1.908a4.584,4.584,0,0,0,2.195-.549,4.175,4.175,0,0,0,1.658-1.646,5.272,5.272,0,0,0,.632-2.672,5.354,5.354,0,0,0-.62-2.672A4.061,4.061,0,0,0,25.341-30a4.525,4.525,0,0,0-2.171-.537A4.5,4.5,0,0,0,20.987-30,3.935,3.935,0,0,0,19.4-28.368a5.528,5.528,0,0,0-.6,2.672,5.677,5.677,0,0,0,.584,2.7,3.884,3.884,0,0,0,1.562,1.634A4.389,4.389,0,0,0,23.1-20.83ZM48.384-32.447a5.718,5.718,0,0,1,2.719.632,4.561,4.561,0,0,1,1.884,1.9,6.331,6.331,0,0,1,.692,3.077v7.7H51.532v-7.395a4.236,4.236,0,0,0-.966-2.994,3.4,3.4,0,0,0-2.612-1.038,3.49,3.49,0,0,0-2.7,1.085,4.464,4.464,0,0,0-1,3.137v7.2H42.11v-7.395a4.236,4.236,0,0,0-.966-2.994,3.4,3.4,0,0,0-2.612-1.038,3.49,3.49,0,0,0-2.7,1.085,4.464,4.464,0,0,0-1,3.137v7.2H32.664V-32.208h2.171v1.884A4.289,4.289,0,0,1,36.564-31.9a5.237,5.237,0,0,1,2.4-.549,5.657,5.657,0,0,1,2.91.739,4.512,4.512,0,0,1,1.884,2.171,4.288,4.288,0,0,1,1.813-2.147A5.34,5.34,0,0,1,48.384-32.447Zm24.57,0a5.718,5.718,0,0,1,2.719.632,4.561,4.561,0,0,1,1.884,1.9,6.331,6.331,0,0,1,.692,3.077v7.7H76.1v-7.395a4.236,4.236,0,0,0-.966-2.994,3.4,3.4,0,0,0-2.612-1.038,3.49,3.49,0,0,0-2.7,1.085,4.464,4.464,0,0,0-1,3.137v7.2H66.68v-7.395a4.236,4.236,0,0,0-.966-2.994A3.4,3.4,0,0,0,63.1-30.562a3.49,3.49,0,0,0-2.7,1.085,4.464,4.464,0,0,0-1,3.137v7.2H57.234V-32.208H59.4v1.884A4.289,4.289,0,0,1,61.134-31.9a5.237,5.237,0,0,1,2.4-.549,5.657,5.657,0,0,1,2.91.739,4.512,4.512,0,0,1,1.884,2.171,4.287,4.287,0,0,1,1.813-2.147A5.34,5.34,0,0,1,72.953-32.447Zm9.971-1.884a1.428,1.428,0,0,1-1.05-.429,1.428,1.428,0,0,1-.429-1.05,1.428,1.428,0,0,1,.429-1.05,1.428,1.428,0,0,1,1.05-.429,1.361,1.361,0,0,1,1.014.429,1.449,1.449,0,0,1,.417,1.05,1.449,1.449,0,0,1-.417,1.05A1.361,1.361,0,0,1,82.924-34.331Zm1.05,2.123v13.072H81.8V-32.208Zm6.345,1.789v7.7a1.833,1.833,0,0,0,.406,1.348,2,2,0,0,0,1.407.394h1.6v1.837H91.774a3.893,3.893,0,0,1-2.719-.835,3.583,3.583,0,0,1-.906-2.743v-7.7H86.455v-1.789h1.694V-35.5h2.171v3.292H93.73v1.789Z" transform="translate(48.7 65.268)" fill="#4f0c81"/>
  <g id="Isolation_Mode" data-name="Isolation Mode" transform="translate(48.964 0)">
    <g id="Group_646" data-name="Group 646" transform="translate(0)">
      <path id="Path_569" data-name="Path 569" d="M6549.968,3875.633a7.411,7.411,0,0,1,2.548,4.56h-4.426a3.687,3.687,0,0,0-1.207-2.146,3.628,3.628,0,0,0-2.448-.805,2.815,2.815,0,0,0-1.878.57,1.919,1.919,0,0,0-.67,1.542,1.569,1.569,0,0,0,.536,1.241,3.869,3.869,0,0,0,1.341.738q.806.269,2.314.637a23.805,23.805,0,0,1,3.437.989,5.7,5.7,0,0,1,2.28,1.643,4.532,4.532,0,0,1,.955,3.035,4.688,4.688,0,0,1-1.86,3.856,7.847,7.847,0,0,1-5.013,1.475,9.47,9.47,0,0,1-5.8-1.626,6.837,6.837,0,0,1-2.649-4.644h4.526a3.059,3.059,0,0,0,1.208,2.163,4.371,4.371,0,0,0,2.716.788,2.631,2.631,0,0,0,1.844-.586,1.98,1.98,0,0,0,.637-1.525,1.682,1.682,0,0,0-.554-1.308,3.734,3.734,0,0,0-1.374-.771q-.822-.268-2.33-.637a26.148,26.148,0,0,1-3.369-.956,5.37,5.37,0,0,1-2.213-1.56,4.377,4.377,0,0,1-.923-2.951,4.831,4.831,0,0,1,1.845-3.923,7.823,7.823,0,0,1,5.1-1.509A8.194,8.194,0,0,1,6549.968,3875.633Z" transform="translate(-6537.427 -3866.244)" fill="#ff7900"/>
      <path id="Path_570" data-name="Path 570" d="M6672.424,3859.235v4.057h-2.481a6.867,6.867,0,0,1-4.778-1.509q-1.659-1.509-1.66-5.03v-8.047h-2.582v-3.99h2.582v-4.594h4.728v4.594h4.157v3.99h-4.157v8.115a2.612,2.612,0,0,0,.537,1.877,2.5,2.5,0,0,0,1.81.537Z" transform="translate(-6644.997 -3836.803)" fill="#ff7900"/>
      <path id="Path_571" data-name="Path 571" d="M6762.6,3815.1a3.457,3.457,0,0,1,4.226,0,2.388,2.388,0,0,1,.8,1.862,2.348,2.348,0,0,1-.8,1.827,3.455,3.455,0,0,1-4.226,0,2.345,2.345,0,0,1-.8-1.827A2.385,2.385,0,0,1,6762.6,3815.1Zm4.459,7.192v18.576h-4.727V3822.3Z" transform="translate(-6732.864 -3814.382)" fill="#ff7900"/>
      <path id="Path_572" data-name="Path 572" d="M6833.492,3875.867a8.5,8.5,0,0,1,3,5.3h-5a3.856,3.856,0,0,0-1.375-2.33,4.223,4.223,0,0,0-2.716-.855,4.051,4.051,0,0,0-3.135,1.392,7.226,7.226,0,0,0,0,8.147,4.049,4.049,0,0,0,3.135,1.392,4.229,4.229,0,0,0,2.716-.854,3.858,3.858,0,0,0,1.375-2.331h5a8.493,8.493,0,0,1-3,5.3,9.193,9.193,0,0,1-5.986,1.945,9.887,9.887,0,0,1-4.829-1.157,8.129,8.129,0,0,1-3.285-3.3,11.545,11.545,0,0,1,0-10.144,8,8,0,0,1,3.285-3.3,10.01,10.01,0,0,1,4.829-1.14A9.2,9.2,0,0,1,6833.492,3875.867Z" transform="translate(-6782.006 -3866.244)" fill="#ff7900"/>
      <path id="Path_573" data-name="Path 573" d="M6986.38,3852.194l-6.136-8.114v8.114h-4.728v-24.812h4.728v13.948l6.1-7.712h5.6l-7.812,9.254,8.014,9.321Z" transform="translate(-6919.02 -3825.706)" fill="#ff7900"/>
      <path id="Path_574" data-name="Path 574" d="M7120.943,3847.859l12.244,12.272h-5.733l-10.972-11.065V3859.9h-4.728v-23.672h4.728v10.629l8.786-10.629h5.7Z" transform="translate(-7037.688 -3833.407)" fill="#ff7900"/>
    </g>
  </g>
</svg>
